<svg width="100" height="28" viewBox="0 0 100 28" fill="none" xmlns="http://www.w3.org/2000/svg">
<path d="M2.152 27C1.888 27 1.684 26.916 1.54 26.748C1.42 26.556 1.384 26.34 1.432 26.1L6.4 2.7C6.448 2.436 6.58 2.22 6.796 2.052C7.012 1.884 7.24 1.8 7.48 1.8H18.028C20.572 1.8 22.552 2.292 23.968 3.276C25.384 4.26 26.092 5.64 26.092 7.416C26.092 7.824 26.032 8.328 25.912 8.928C25.648 10.176 25.12 11.208 24.328 12.024C23.56 12.84 22.744 13.428 21.88 13.788C22.624 14.196 23.224 14.784 23.68 15.552C24.136 16.296 24.364 17.148 24.364 18.108C24.364 18.372 24.316 18.792 24.22 19.368C23.14 24.456 19.708 27 13.924 27H2.152ZM15.544 11.808C16.624 11.808 17.5 11.484 18.172 10.836C18.868 10.164 19.216 9.348 19.216 8.388C19.216 7.812 19.024 7.356 18.64 7.02C18.256 6.66 17.68 6.48 16.912 6.48H12.088L10.936 11.808H15.544ZM13.708 22.32C14.476 22.32 15.148 22.14 15.724 21.78C16.324 21.42 16.78 20.952 17.092 20.376C17.428 19.776 17.596 19.164 17.596 18.54C17.596 17.868 17.38 17.34 16.948 16.956C16.54 16.572 15.892 16.38 15.004 16.38H9.964L8.704 22.32H13.708ZM27.1748 27C26.9108 27 26.7068 26.916 26.5628 26.748C26.4188 26.58 26.3708 26.364 26.4188 26.1L31.4948 2.34C31.5428 2.076 31.6628 1.86 31.8548 1.692C32.0708 1.524 32.3108 1.44 32.5748 1.44H36.8228C37.0868 1.44 37.2908 1.524 37.4348 1.692C37.5308 1.836 37.5788 1.98 37.5788 2.124C37.5788 2.196 37.5668 2.268 37.5428 2.34L32.5028 26.1C32.4548 26.364 32.3228 26.58 32.1068 26.748C31.8908 26.916 31.6628 27 31.4228 27H27.1748ZM42.0107 5.58C41.7468 5.58 41.5428 5.496 41.3988 5.328C41.2788 5.16 41.2308 4.944 41.2548 4.68L41.9748 1.44C42.0228 1.176 42.1548 0.959999 42.3708 0.791998C42.5868 0.623999 42.8148 0.539999 43.0548 0.539999H47.3748C47.6388 0.539999 47.8428 0.623999 47.9868 0.791998C48.0828 0.935998 48.1308 1.08 48.1308 1.224C48.1308 1.296 48.1188 1.368 48.0948 1.44L47.4108 4.68C47.3628 4.944 47.2308 5.16 47.0148 5.328C46.8228 5.496 46.5948 5.58 46.3308 5.58H42.0107ZM37.5108 27C37.2468 27 37.0428 26.916 36.8988 26.748C36.7548 26.58 36.7067 26.364 36.7548 26.1L40.3548 9.18C40.4028 8.916 40.5348 8.7 40.7508 8.532C40.9668 8.364 41.2068 8.28 41.4707 8.28H45.7188C45.9588 8.28 46.1508 8.364 46.2948 8.532C46.3908 8.652 46.4388 8.796 46.4388 8.964C46.4388 9.036 46.4268 9.108 46.4028 9.18L42.8388 26.1C42.7908 26.364 42.6588 26.58 42.4428 26.748C42.2268 26.916 41.9988 27 41.7588 27H37.5108ZM47.8115 27C47.5475 27 47.3435 26.916 47.1995 26.748C47.0555 26.58 47.0075 26.364 47.0555 26.1L50.6555 9.18C50.7035 8.916 50.8355 8.7 51.0515 8.532C51.2675 8.364 51.5075 8.28 51.7715 8.28H55.9115C56.1755 8.28 56.3795 8.364 56.5235 8.532C56.6195 8.652 56.6675 8.796 56.6675 8.964C56.6675 9.036 56.6555 9.108 56.6315 9.18L56.3435 10.548C57.1355 9.756 58.0595 9.12 59.1155 8.64C60.1715 8.16 61.3235 7.92 62.5715 7.92C64.4675 7.92 65.9435 8.412 66.9995 9.396C68.0555 10.356 68.5835 11.76 68.5835 13.608C68.5835 14.28 68.4875 15.096 68.2955 16.056L66.1355 26.1C66.0875 26.364 65.9555 26.58 65.7395 26.748C65.5475 26.916 65.3315 27 65.0915 27H60.5555C60.2915 27 60.0875 26.916 59.9435 26.748C59.7995 26.556 59.7515 26.34 59.7995 26.1L61.8875 16.272C62.0075 15.672 62.0675 15.204 62.0675 14.868C62.0675 14.148 61.8755 13.62 61.4915 13.284C61.1075 12.924 60.4955 12.744 59.6555 12.744C58.5755 12.744 57.6635 13.056 56.9195 13.68C56.1755 14.28 55.6835 15.144 55.4435 16.272L53.3915 26.1C53.3435 26.364 53.2115 26.58 52.9955 26.748C52.7795 26.916 52.5515 27 52.3115 27H47.8115ZM70.9443 27C70.6803 27 70.4763 26.916 70.3323 26.748C70.1883 26.58 70.1403 26.364 70.1883 26.1L75.2643 2.34C75.3123 2.076 75.4323 1.86 75.6243 1.692C75.8403 1.524 76.0803 1.44 76.3443 1.44H80.4843C80.7483 1.44 80.9523 1.524 81.0963 1.692C81.2163 1.812 81.2763 1.968 81.2763 2.16C81.2763 2.208 81.2643 2.268 81.2403 2.34L78.6843 14.328L84.6963 8.892C84.7683 8.844 84.8763 8.76 85.0203 8.64C85.1643 8.52 85.3203 8.436 85.4883 8.388C85.6563 8.316 85.8483 8.28 86.0643 8.28H91.2123C91.4283 8.28 91.5963 8.34 91.7163 8.46C91.8363 8.556 91.8963 8.688 91.8963 8.856C91.8963 9.144 91.7403 9.42 91.4283 9.684L83.4723 17.064L88.7643 25.704C88.8603 25.824 88.9083 25.98 88.9083 26.172C88.9083 26.388 88.8243 26.58 88.6563 26.748C88.4883 26.916 88.2603 27 87.9723 27H83.2563C82.7763 27 82.4163 26.808 82.1763 26.424L77.6403 19.08L76.1643 26.1C76.1163 26.364 75.9843 26.58 75.7683 26.748C75.5763 26.916 75.3483 27 75.0843 27H70.9443ZM91.9284 27C91.6644 27 91.4604 26.916 91.3164 26.748C91.1964 26.628 91.1364 26.472 91.1364 26.28C91.1364 26.232 91.1484 26.172 91.1724 26.1L92.1444 21.528C92.1924 21.264 92.3244 21.048 92.5404 20.88C92.7564 20.712 92.9964 20.628 93.2604 20.628H97.7964C98.0604 20.628 98.2644 20.712 98.4084 20.88C98.5044 21 98.5524 21.144 98.5524 21.312C98.5524 21.384 98.5404 21.456 98.5164 21.528L97.5444 26.1C97.4964 26.364 97.3644 26.58 97.1484 26.748C96.9564 26.916 96.7284 27 96.4644 27H91.9284Z" fill="white"/>
<path d="M1.54 26.748L1.116 27.013L1.13592 27.0449L1.16037 27.0734L1.54 26.748ZM1.432 26.1L0.942867 25.9962L0.94171 26.0019L1.432 26.1ZM6.4 2.7L6.8891 2.80384L6.89062 2.79666L6.89194 2.78944L6.4 2.7ZM6.796 2.052L7.10297 2.44668L7.10297 2.44667L6.796 2.052ZM23.968 3.276L23.6827 3.68659L23.968 3.276ZM25.912 8.928L26.4012 9.03148L26.4023 9.02606L25.912 8.928ZM24.328 12.024L23.9692 11.6757L23.9639 11.6813L24.328 12.024ZM21.88 13.788L21.6877 13.3265L20.7278 13.7264L21.6396 14.2264L21.88 13.788ZM23.68 15.552L23.25 15.8073L23.2537 15.8133L23.68 15.552ZM24.22 19.368L24.7091 19.4718L24.7114 19.4611L24.7132 19.4502L24.22 19.368ZM18.172 10.836L18.5191 11.1959L18.5193 11.1957L18.172 10.836ZM18.64 7.02L18.298 7.38477L18.3043 7.39064L18.3107 7.39629L18.64 7.02ZM12.088 6.48V5.98H11.6846L11.5993 6.37433L12.088 6.48ZM10.936 11.808L10.4473 11.7023L10.3163 12.308H10.936V11.808ZM15.724 21.78L15.4667 21.3512L15.459 21.356L15.724 21.78ZM17.092 20.376L16.6557 20.1317L16.6524 20.1379L17.092 20.376ZM16.948 16.956L16.6053 17.3201L16.6105 17.325L16.6158 17.3297L16.948 16.956ZM9.964 16.38V15.88H9.55894L9.47488 16.2762L9.964 16.38ZM8.704 22.32L8.21488 22.2162L8.08681 22.82H8.704V22.32ZM2.152 26.5C2.00296 26.5 1.95016 26.4582 1.91963 26.4226L1.16037 27.0734C1.41784 27.3738 1.77304 27.5 2.152 27.5V26.5ZM1.964 26.483C1.91735 26.4084 1.89708 26.3241 1.92229 26.1981L0.94171 26.0019C0.870917 26.3559 0.922655 26.7036 1.116 27.013L1.964 26.483ZM1.9211 26.2038L6.8891 2.80384L5.9109 2.59616L0.942901 25.9962L1.9211 26.2038ZM6.89194 2.78944C6.91745 2.64909 6.98196 2.5408 7.10297 2.44668L6.48903 1.65732C6.17805 1.8992 5.97855 2.22291 5.90807 2.61056L6.89194 2.78944ZM7.10297 2.44667C7.24411 2.3369 7.36651 2.3 7.48 2.3V1.3C7.1135 1.3 6.77989 1.4311 6.48903 1.65732L7.10297 2.44667ZM7.48 2.3H18.028V1.3H7.48V2.3ZM18.028 2.3C20.516 2.3 22.3816 2.78245 23.6827 3.68659L24.2533 2.8654C22.7224 1.80155 20.628 1.3 18.028 1.3V2.3ZM23.6827 3.68659C24.9595 4.57385 25.592 5.79791 25.592 7.416H26.592C26.592 5.48209 25.8085 3.94614 24.2533 2.8654L23.6827 3.68659ZM25.592 7.416C25.592 7.77914 25.5381 8.24793 25.4217 8.82994L26.4023 9.02606C26.5259 8.40807 26.592 7.86886 26.592 7.416H25.592ZM25.4228 8.82452C25.1759 9.99184 24.6878 10.9354 23.9692 11.6758L24.6868 12.3722C25.5522 11.4806 26.1201 10.3602 26.4012 9.03148L25.4228 8.82452ZM23.9639 11.6813C23.2348 12.456 22.4752 12.9983 21.6877 13.3265L22.0723 14.2495C23.0128 13.8577 23.8852 13.224 24.6921 12.3667L23.9639 11.6813ZM21.6396 14.2264C22.301 14.5891 22.8372 15.1119 23.2501 15.8073L24.1099 15.2967C23.6108 14.456 22.947 13.8029 22.1204 13.3496L21.6396 14.2264ZM23.2537 15.8133C23.6568 16.4709 23.864 17.2307 23.864 18.108H24.864C24.864 17.0653 24.6152 16.1211 24.1063 15.2907L23.2537 15.8133ZM23.864 18.108C23.864 18.3275 23.8224 18.7125 23.7268 19.2858L24.7132 19.4502C24.8096 18.8715 24.864 18.4165 24.864 18.108H23.864ZM23.7309 19.2642C23.2105 21.716 22.1361 23.5059 20.5383 24.6903C18.9343 25.8793 16.7462 26.5 13.924 26.5V27.5C16.8858 27.5 19.3057 26.8487 21.1337 25.4937C22.9679 24.1341 24.1495 22.108 24.7091 19.4718L23.7309 19.2642ZM13.924 26.5H2.152V27.5H13.924V26.5ZM15.544 12.308C16.7316 12.308 17.7392 11.9479 18.5191 11.1959L17.8249 10.4761C17.2608 11.0201 16.5164 11.308 15.544 11.308V12.308ZM18.5193 11.1957C19.312 10.4303 19.716 9.48484 19.716 8.388H18.716C18.716 9.21116 18.424 9.89769 17.8247 10.4763L18.5193 11.1957ZM19.716 8.388C19.716 7.68853 19.4764 7.08749 18.9693 6.64371L18.3107 7.39629C18.5716 7.62451 18.716 7.93547 18.716 8.388H19.716ZM18.982 6.65523C18.4704 6.17562 17.7493 5.98 16.912 5.98V6.98C17.6107 6.98 18.0416 7.14438 18.298 7.38477L18.982 6.65523ZM16.912 5.98H12.088V6.98H16.912V5.98ZM11.5993 6.37433L10.4473 11.7023L11.4247 11.9137L12.5767 6.58566L11.5993 6.37433ZM10.936 12.308H15.544V11.308H10.936V12.308ZM13.708 22.82C14.5571 22.82 15.3235 22.6199 15.989 22.204L15.459 21.356C14.9725 21.6601 14.3949 21.82 13.708 21.82V22.82ZM15.9812 22.2087C16.6526 21.8059 17.1741 21.2742 17.5316 20.6141L16.6524 20.1379C16.3859 20.6298 15.9954 21.0341 15.4668 21.3513L15.9812 22.2087ZM17.5283 20.6203C17.9017 19.9535 18.096 19.2581 18.096 18.54H17.096C17.096 19.0699 16.9543 19.5985 16.6557 20.1317L17.5283 20.6203ZM18.096 18.54C18.096 17.7508 17.8367 17.077 17.2802 16.5823L16.6158 17.3297C16.9233 17.6031 17.096 17.9852 17.096 18.54H18.096ZM17.2907 16.5919C16.7485 16.0816 15.948 15.88 15.004 15.88V16.88C15.836 16.88 16.3315 17.0624 16.6053 17.3201L17.2907 16.5919ZM15.004 15.88H9.964V16.88H15.004V15.88ZM9.47488 16.2762L8.21488 22.2162L9.19312 22.4238L10.4531 16.4838L9.47488 16.2762ZM8.704 22.82H13.708V21.82H8.704V22.82ZM26.5628 26.748L26.1832 27.0734L26.5628 26.748ZM26.4188 26.1L25.9298 25.9955L25.9282 26.003L25.9269 26.0106L26.4188 26.1ZM31.4948 2.34L31.9838 2.44446L31.9854 2.43697L31.9867 2.42944L31.4948 2.34ZM31.8548 1.692L31.5478 1.29732L31.5364 1.3062L31.5256 1.31571L31.8548 1.692ZM37.4348 1.692L37.8508 1.41465L37.8341 1.38953L37.8144 1.36661L37.4348 1.692ZM37.5428 2.34L37.0685 2.18188L37.0596 2.20865L37.0537 2.23625L37.5428 2.34ZM32.5028 26.1L32.0137 25.9962L32.0122 26.0034L32.0109 26.0106L32.5028 26.1ZM27.1748 26.5C27.0258 26.5 26.973 26.4582 26.9424 26.4226L26.1832 27.0734C26.4406 27.3738 26.7959 27.5 27.1748 27.5V26.5ZM26.9424 26.4226C26.9173 26.3933 26.8834 26.3401 26.9107 26.1894L25.9269 26.0106C25.8583 26.3879 25.9203 26.7667 26.1832 27.0734L26.9424 26.4226ZM26.9078 26.2045L31.9838 2.44446L31.0058 2.23554L25.9298 25.9955L26.9078 26.2045ZM31.9867 2.42944C32.0156 2.2705 32.0818 2.15777 32.1841 2.06829L31.5256 1.31571C31.2438 1.56222 31.07 1.88149 31.0029 2.25056L31.9867 2.42944ZM32.1618 2.08668C32.2935 1.98425 32.4263 1.94 32.5748 1.94V0.939999C32.1953 0.939999 31.8482 1.06375 31.5478 1.29732L32.1618 2.08668ZM32.5748 1.94H36.8228V0.939999H32.5748V1.94ZM36.8228 1.94C36.9719 1.94 37.0247 1.98177 37.0552 2.01739L37.8144 1.36661C37.557 1.06623 37.2018 0.939999 36.8228 0.939999V1.94ZM37.0188 1.96935C37.0712 2.04803 37.0788 2.09715 37.0788 2.124H38.0788C38.0788 1.86285 37.9904 1.62396 37.8508 1.41465L37.0188 1.96935ZM37.0788 2.124C37.0788 2.13941 37.0764 2.15809 37.0685 2.18188L38.0172 2.49812C38.0572 2.37791 38.0788 2.25259 38.0788 2.124H37.0788ZM37.0537 2.23625L32.0137 25.9962L32.9919 26.2038L38.0319 2.44375L37.0537 2.23625ZM32.0109 26.0106C31.9854 26.1509 31.9209 26.2592 31.7998 26.3533L32.4138 27.1427C32.7248 26.9008 32.9243 26.5771 32.9947 26.1894L32.0109 26.0106ZM31.7998 26.3533C31.6587 26.4631 31.5363 26.5 31.4228 26.5V27.5C31.7893 27.5 32.1229 27.3689 32.4138 27.1427L31.7998 26.3533ZM31.4228 26.5H27.1748V27.5H31.4228V26.5ZM41.3988 5.328L40.9919 5.61862L41.0047 5.63661L41.0191 5.65339L41.3988 5.328ZM41.2547 4.68L40.7667 4.57153L40.7597 4.60282L40.7568 4.63473L41.2547 4.68ZM41.9748 1.44L42.4628 1.54846L42.465 1.53899L42.4667 1.52944L41.9748 1.44ZM42.3708 0.791998L42.0638 0.397322L42.0638 0.397323L42.3708 0.791998ZM47.9868 0.791998L48.4028 0.514649L48.386 0.489526L48.3664 0.466601L47.9868 0.791998ZM48.0947 1.44L47.6204 1.28189L47.6114 1.30888L47.6055 1.33672L48.0947 1.44ZM47.4108 4.68L46.9213 4.57668L46.9188 4.59056L47.4108 4.68ZM47.0148 5.328L46.7078 4.93332L46.6964 4.94219L46.6855 4.95171L47.0148 5.328ZM36.8988 26.748L36.5191 27.0734L36.8988 26.748ZM36.7547 26.1L36.2657 25.9959L36.2641 26.0032L36.2628 26.0106L36.7547 26.1ZM40.3548 9.18L40.8438 9.28405L40.8454 9.27677L40.8467 9.26944L40.3548 9.18ZM40.7508 8.532L41.0577 8.92668V8.92667L40.7508 8.532ZM46.2948 8.532L46.6852 8.21965L46.6799 8.21304L46.6744 8.2066L46.2948 8.532ZM46.4028 9.18L45.9284 9.02189L45.9194 9.04899L45.9135 9.07694L46.4028 9.18ZM42.8387 26.1L42.3493 25.9969L42.3468 26.0106L42.8387 26.1ZM42.0107 5.08C41.8617 5.08 41.8089 5.03823 41.7784 5.0026L41.0191 5.65339C41.2766 5.95377 41.6318 6.08 42.0107 6.08V5.08ZM41.8056 5.03738C41.7731 4.99185 41.7364 4.90469 41.7527 4.72527L40.7568 4.63473C40.7251 4.9833 40.7844 5.32815 40.9919 5.61862L41.8056 5.03738ZM41.7428 4.78847L42.4628 1.54846L41.4867 1.33153L40.7667 4.57153L41.7428 4.78847ZM42.4667 1.52944C42.4922 1.38909 42.5567 1.2808 42.6777 1.18667L42.0638 0.397323C41.7528 0.6392 41.5533 0.962905 41.4828 1.35056L42.4667 1.52944ZM42.6777 1.18668C42.8189 1.0769 42.9413 1.04 43.0548 1.04V0.0399995C42.6882 0.0399995 42.3546 0.1711 42.0638 0.397322L42.6777 1.18668ZM43.0548 1.04H47.3747V0.0399995H43.0548V1.04ZM47.3747 1.04C47.5238 1.04 47.5766 1.08177 47.6071 1.1174L48.3664 0.466601C48.1089 0.166226 47.7537 0.0399995 47.3747 0.0399995V1.04ZM47.5707 1.06935C47.6232 1.14803 47.6307 1.19715 47.6307 1.224H48.6307C48.6307 0.962846 48.5423 0.723966 48.4028 0.514649L47.5707 1.06935ZM47.6307 1.224C47.6307 1.23941 47.6283 1.25809 47.6204 1.28189L48.5691 1.59811C48.6092 1.4779 48.6307 1.35259 48.6307 1.224H47.6307ZM47.6055 1.33672L46.9215 4.57672L47.9 4.78328L48.584 1.54328L47.6055 1.33672ZM46.9188 4.59056C46.8933 4.7309 46.8288 4.8392 46.7078 4.93332L47.3217 5.72267C47.6327 5.4808 47.8322 5.15709 47.9027 4.76944L46.9188 4.59056ZM46.6855 4.95171C46.5881 5.03697 46.4783 5.08 46.3307 5.08V6.08C46.7113 6.08 47.0574 5.95503 47.344 5.70429L46.6855 4.95171ZM46.3307 5.08H42.0107V6.08H46.3307V5.08ZM37.5107 26.5C37.3617 26.5 37.3089 26.4582 37.2784 26.4226L36.5191 27.0734C36.7766 27.3738 37.1318 27.5 37.5107 27.5V26.5ZM37.2784 26.4226C37.2533 26.3933 37.2193 26.3401 37.2467 26.1894L36.2628 26.0106C36.1942 26.3879 36.2562 26.7667 36.5191 27.0734L37.2784 26.4226ZM37.2438 26.2041L40.8438 9.28405L39.8657 9.07594L36.2657 25.9959L37.2438 26.2041ZM40.8467 9.26944C40.8722 9.12909 40.9367 9.0208 41.0577 8.92668L40.4438 8.13732C40.1328 8.3792 39.9333 8.7029 39.8628 9.09056L40.8467 9.26944ZM41.0577 8.92667C41.1894 8.82425 41.3222 8.78 41.4707 8.78V7.78C41.0913 7.78 40.7441 7.90375 40.4438 8.13732L41.0577 8.92667ZM41.4707 8.78H45.7188V7.78H41.4707V8.78ZM45.7188 8.78C45.8268 8.78 45.8748 8.81041 45.9151 8.85739L46.6744 8.2066C46.4267 7.91759 46.0907 7.78 45.7188 7.78V8.78ZM45.9043 8.84435C45.9226 8.86727 45.9388 8.89826 45.9388 8.964H46.9388C46.9388 8.69374 46.8588 8.43673 46.6852 8.21965L45.9043 8.84435ZM45.9388 8.964C45.9388 8.97941 45.9363 8.9981 45.9284 9.02189L46.8771 9.33811C46.9172 9.2179 46.9388 9.09259 46.9388 8.964H45.9388ZM45.9135 9.07694L42.3495 25.9969L43.328 26.2031L46.892 9.28306L45.9135 9.07694ZM42.3468 26.0106C42.3213 26.1509 42.2568 26.2592 42.1358 26.3533L42.7497 27.1427C43.0607 26.9008 43.2602 26.5771 43.3307 26.1894L42.3468 26.0106ZM42.1358 26.3533C41.9946 26.4631 41.8722 26.5 41.7588 26.5V27.5C42.1253 27.5 42.4589 27.3689 42.7497 27.1427L42.1358 26.3533ZM41.7588 26.5H37.5107V27.5H41.7588V26.5ZM47.1995 26.748L46.8199 27.0734L47.1995 26.748ZM47.0555 26.1L46.5665 25.9959L46.5649 26.0032L46.5636 26.0106L47.0555 26.1ZM50.6555 9.18L51.1446 9.28405L51.1461 9.27677L51.1475 9.26944L50.6555 9.18ZM51.0515 8.532L51.3585 8.92668V8.92667L51.0515 8.532ZM56.5235 8.532L56.914 8.21965L56.9087 8.21304L56.9032 8.2066L56.5235 8.532ZM56.6315 9.18L56.1572 9.02189L56.1481 9.04901L56.1423 9.07699L56.6315 9.18ZM56.3435 10.548L55.8543 10.445L55.5078 12.0909L56.6971 10.9016L56.3435 10.548ZM59.1155 8.64L58.9086 8.18481V8.18482L59.1155 8.64ZM66.9995 9.396L66.6586 9.76183L66.6632 9.76597L66.9995 9.396ZM68.2955 16.056L68.7844 16.1611L68.7858 16.1541L68.2955 16.056ZM66.1355 26.1L65.6467 25.9949L65.645 26.0027L65.6436 26.0106L66.1355 26.1ZM65.7395 26.748L65.4326 26.3533L65.4212 26.3622L65.4103 26.3717L65.7395 26.748ZM59.9435 26.748L59.5435 27.048L59.5533 27.061L59.5639 27.0734L59.9435 26.748ZM59.7995 26.1L59.3104 25.9961L59.3092 26.0019L59.7995 26.1ZM61.8875 16.272L62.3767 16.3759L62.3778 16.3701L61.8875 16.272ZM61.4915 13.284L61.1496 13.6488L61.1558 13.6546L61.1623 13.6603L61.4915 13.284ZM56.9195 13.68L57.2335 14.0693L57.2408 14.0631L56.9195 13.68ZM55.4435 16.272L54.9545 16.1679L54.9541 16.1698L55.4435 16.272ZM53.3915 26.1L52.9019 25.9978L52.8996 26.0106L53.3915 26.1ZM47.8115 26.5C47.6625 26.5 47.6097 26.4582 47.5792 26.4226L46.8199 27.0734C47.0774 27.3738 47.4326 27.5 47.8115 27.5V26.5ZM47.5792 26.4226C47.5541 26.3933 47.5201 26.3401 47.5475 26.1894L46.5636 26.0106C46.495 26.3879 46.557 26.7667 46.8199 27.0734L47.5792 26.4226ZM47.5446 26.2041L51.1446 9.28405L50.1665 9.07594L46.5665 25.9959L47.5446 26.2041ZM51.1475 9.26944C51.173 9.12909 51.2375 9.0208 51.3585 8.92668L50.7446 8.13732C50.4336 8.3792 50.2341 8.7029 50.1636 9.09056L51.1475 9.26944ZM51.3585 8.92667C51.4902 8.82425 51.623 8.78 51.7715 8.78V7.78C51.392 7.78 51.0449 7.90375 50.7446 8.13732L51.3585 8.92667ZM51.7715 8.78H55.9115V7.78H51.7715V8.78ZM55.9115 8.78C56.0606 8.78 56.1134 8.82177 56.1439 8.85739L56.9032 8.2066C56.6457 7.90623 56.2905 7.78 55.9115 7.78V8.78ZM56.1331 8.84435C56.1514 8.86727 56.1675 8.89826 56.1675 8.964H57.1675C57.1675 8.69374 57.0876 8.43673 56.914 8.21965L56.1331 8.84435ZM56.1675 8.964C56.1675 8.97941 56.1651 8.9981 56.1572 9.02189L57.1059 9.33811C57.1459 9.2179 57.1675 9.09259 57.1675 8.964H56.1675ZM56.1423 9.07699L55.8543 10.445L56.8328 10.651L57.1208 9.283L56.1423 9.07699ZM56.6971 10.9016C57.4452 10.1535 58.319 9.55127 59.3224 9.09518L58.9086 8.18482C57.8 8.68873 56.8259 9.35854 55.99 10.1944L56.6971 10.9016ZM59.3224 9.09518C60.3086 8.64691 61.3894 8.42 62.5715 8.42V7.42C61.2577 7.42 60.0344 7.67309 58.9086 8.18481L59.3224 9.09518ZM62.5715 8.42C64.3818 8.42 65.7213 8.88831 66.6587 9.7618L67.3404 9.0302C66.1658 7.93569 64.5533 7.42 62.5715 7.42V8.42ZM66.6632 9.76597C67.5863 10.6052 68.0835 11.8568 68.0835 13.608H69.0835C69.0835 11.6632 68.5247 10.1068 67.3359 9.02603L66.6632 9.76597ZM68.0835 13.608C68.0835 14.2359 67.9934 15.017 67.8052 15.9579L68.7858 16.1541C68.9816 15.175 69.0835 14.3241 69.0835 13.608H68.0835ZM67.8067 15.9509L65.6467 25.9949L66.6244 26.2051L68.7844 16.1611L67.8067 15.9509ZM65.6436 26.0106C65.6181 26.1509 65.5536 26.2592 65.4326 26.3533L66.0465 27.1427C66.3575 26.9008 66.557 26.5771 66.6275 26.1894L65.6436 26.0106ZM65.4103 26.3717C65.3032 26.4654 65.2024 26.5 65.0915 26.5V27.5C65.4607 27.5 65.7919 27.3666 66.0688 27.1243L65.4103 26.3717ZM65.0915 26.5H60.5555V27.5H65.0915V26.5ZM60.5555 26.5C60.4065 26.5 60.3537 26.4582 60.3232 26.4226L59.5639 27.0734C59.8214 27.3738 60.1766 27.5 60.5555 27.5V26.5ZM60.3435 26.448C60.2868 26.3723 60.2691 26.3017 60.2898 26.1981L59.3092 26.0019C59.234 26.3783 59.3123 26.7397 59.5435 27.048L60.3435 26.448ZM60.2886 26.2039L62.3766 16.3759L61.3984 16.1681L59.3104 25.9961L60.2886 26.2039ZM62.3778 16.3701C62.4999 15.7594 62.5675 15.2534 62.5675 14.868H61.5675C61.5675 15.1546 61.5151 15.5846 61.3972 16.1739L62.3778 16.3701ZM62.5675 14.868C62.5675 14.0651 62.3522 13.3727 61.8208 12.9077L61.1623 13.6603C61.3989 13.8673 61.5675 14.2309 61.5675 14.868H62.5675ZM61.8335 12.9192C61.315 12.4331 60.5503 12.244 59.6555 12.244V13.244C60.4407 13.244 60.9001 13.4149 61.1496 13.6488L61.8335 12.9192ZM59.6555 12.244C58.4721 12.244 57.4425 12.5888 56.5982 13.2969L57.2408 14.0631C57.8846 13.5232 58.679 13.244 59.6555 13.244V12.244ZM56.6057 13.2908C55.7548 13.977 55.2133 14.9517 54.9545 16.1679L55.9326 16.3761C56.1538 15.3363 56.5963 14.583 57.2334 14.0692L56.6057 13.2908ZM54.9541 16.1698L52.9021 25.9978L53.881 26.2022L55.933 16.3742L54.9541 16.1698ZM52.8996 26.0106C52.8741 26.1509 52.8096 26.2592 52.6886 26.3533L53.3025 27.1427C53.6135 26.9008 53.813 26.5771 53.8835 26.1894L52.8996 26.0106ZM52.6886 26.3533C52.5474 26.4631 52.425 26.5 52.3115 26.5V27.5C52.678 27.5 53.0116 27.3689 53.3025 27.1427L52.6886 26.3533ZM52.3115 26.5H47.8115V27.5H52.3115V26.5ZM70.3323 26.748L69.9527 27.0734L70.3323 26.748ZM70.1883 26.1L69.6994 25.9955L69.6978 26.003L69.6964 26.0106L70.1883 26.1ZM75.2643 2.34L75.7533 2.44446L75.7549 2.43697L75.7563 2.42944L75.2643 2.34ZM75.6243 1.692L75.3174 1.29732L75.306 1.3062L75.2951 1.31571L75.6243 1.692ZM81.0963 1.692L80.7167 2.0174L80.7292 2.03197L80.7428 2.04555L81.0963 1.692ZM81.2403 2.34L80.766 2.18188L80.7572 2.2084L80.7513 2.23573L81.2403 2.34ZM78.6843 14.328L78.1953 14.2237L77.873 15.7357L79.0197 14.6989L78.6843 14.328ZM84.6963 8.892L84.419 8.47597L84.3883 8.49641L84.361 8.52113L84.6963 8.892ZM85.0203 8.64L84.7003 8.25589L84.7002 8.25589L85.0203 8.64ZM85.4883 8.388L85.6257 8.86876L85.6562 8.86005L85.6853 8.84757L85.4883 8.388ZM91.7163 8.46L91.3628 8.81355L91.3824 8.83313L91.404 8.85043L91.7163 8.46ZM91.4283 9.684L91.1054 9.30231L91.0967 9.30967L91.0883 9.31742L91.4283 9.684ZM83.4723 17.064L83.1323 16.6974L82.8321 16.9759L83.046 17.3252L83.4723 17.064ZM88.7643 25.704L88.338 25.9652L88.3543 25.9919L88.3739 26.0163L88.7643 25.704ZM88.6563 26.748L88.3028 26.3944L88.6563 26.748ZM82.1763 26.424L81.7509 26.6867L81.7523 26.689L82.1763 26.424ZM77.6403 19.08L78.0657 18.8173L77.4084 17.753L77.151 18.9771L77.6403 19.08ZM76.1643 26.1L75.6749 25.9971L75.6724 26.0106L76.1643 26.1ZM75.7683 26.748L75.4614 26.3533L75.45 26.3622L75.4391 26.3717L75.7683 26.748ZM70.9443 26.5C70.7953 26.5 70.7425 26.4582 70.712 26.4226L69.9527 27.0734C70.2102 27.3738 70.5654 27.5 70.9443 27.5V26.5ZM70.712 26.4226C70.6869 26.3933 70.6529 26.3401 70.6803 26.1894L69.6964 26.0106C69.6278 26.3879 69.6898 26.7667 69.9527 27.0734L70.712 26.4226ZM70.6773 26.2045L75.7533 2.44446L74.7754 2.23554L69.6994 25.9955L70.6773 26.2045ZM75.7563 2.42944C75.7852 2.2705 75.8513 2.15777 75.9536 2.06829L75.2951 1.31571C75.0134 1.56222 74.8395 1.88149 74.7724 2.25056L75.7563 2.42944ZM75.9313 2.08668C76.063 1.98425 76.1958 1.94 76.3443 1.94V0.939999C75.9649 0.939999 75.6177 1.06375 75.3174 1.29732L75.9313 2.08668ZM76.3443 1.94H80.4843V0.939999H76.3443V1.94ZM80.4843 1.94C80.6334 1.94 80.6862 1.98177 80.7167 2.0174L81.476 1.3666C81.2185 1.06623 80.8633 0.939999 80.4843 0.939999V1.94ZM80.7428 2.04555C80.7564 2.05916 80.7763 2.08162 80.7763 2.16H81.7763C81.7763 1.85437 81.6763 1.56484 81.4499 1.33845L80.7428 2.04555ZM80.7763 2.16C80.7763 2.15133 80.7769 2.14552 80.7772 2.14303C80.7774 2.14051 80.7776 2.14038 80.7771 2.14294C80.7759 2.14847 80.7729 2.16109 80.766 2.18188L81.7147 2.49811C81.747 2.40115 81.7763 2.28362 81.7763 2.16H80.7763ZM80.7513 2.23573L78.1953 14.2237L79.1734 14.4323L81.7294 2.44426L80.7513 2.23573ZM79.0197 14.6989L85.0317 9.26287L84.361 8.52113L78.349 13.9571L79.0197 14.6989ZM84.9737 9.30803C85.0694 9.24421 85.1947 9.14554 85.3404 9.02411L84.7002 8.25589C84.558 8.37445 84.4673 8.44379 84.419 8.47597L84.9737 9.30803ZM85.3404 9.02411C85.4349 8.94541 85.5295 8.89626 85.6257 8.86876L85.351 7.90724C85.1112 7.97574 84.8938 8.09459 84.7003 8.25589L85.3404 9.02411ZM85.6853 8.84757C85.7808 8.80664 85.9039 8.78 86.0643 8.78V7.78C85.7928 7.78 85.5319 7.82536 85.2914 7.92843L85.6853 8.84757ZM86.0643 8.78H91.2123V7.78H86.0643V8.78ZM91.2123 8.78C91.3337 8.78 91.3604 8.81114 91.3628 8.81355L92.0699 8.10645C91.8323 7.86886 91.523 7.78 91.2123 7.78V8.78ZM91.404 8.85043C91.406 8.85206 91.405 8.85157 91.4027 8.84857C91.4002 8.84547 91.3979 8.84167 91.3962 8.8379C91.3945 8.83422 91.3944 8.83276 91.3948 8.83481C91.3953 8.83705 91.3963 8.84375 91.3963 8.856H92.3963C92.3963 8.55229 92.2794 8.27012 92.0287 8.06956L91.404 8.85043ZM91.3963 8.856C91.3963 8.94315 91.3539 9.092 91.1054 9.30231L91.7513 10.0657C92.1268 9.748 92.3963 9.34484 92.3963 8.856H91.3963ZM91.0883 9.31742L83.1323 16.6974L83.8124 17.4306L91.7684 10.0506L91.0883 9.31742ZM83.046 17.3252L88.338 25.9652L89.1907 25.4428L83.8987 16.8028L83.046 17.3252ZM88.3739 26.0163C88.3828 26.0274 88.4083 26.0646 88.4083 26.172H89.4083C89.4083 25.8954 89.3379 25.6206 89.1548 25.3917L88.3739 26.0163ZM88.4083 26.172C88.4083 26.2415 88.3873 26.3099 88.3028 26.3944L89.0099 27.1016C89.2614 26.8501 89.4083 26.5345 89.4083 26.172H88.4083ZM88.3028 26.3944C88.2478 26.4494 88.1578 26.5 87.9723 26.5V27.5C88.3629 27.5 88.7288 27.3826 89.0099 27.1016L88.3028 26.3944ZM87.9723 26.5H83.2563V27.5H87.9723V26.5ZM83.2563 26.5C82.9363 26.5 82.7425 26.3865 82.6003 26.159L81.7523 26.689C82.0901 27.2295 82.6164 27.5 83.2563 27.5V26.5ZM82.6017 26.1613L78.0657 18.8173L77.2149 19.3427L81.7509 26.6867L82.6017 26.1613ZM77.151 18.9771L75.675 25.9971L76.6536 26.2029L78.1296 19.1829L77.151 18.9771ZM75.6724 26.0106C75.6469 26.1509 75.5824 26.2592 75.4614 26.3533L76.0753 27.1427C76.3863 26.9008 76.5858 26.5771 76.6563 26.1894L75.6724 26.0106ZM75.4391 26.3717C75.3417 26.457 75.2318 26.5 75.0843 26.5V27.5C75.4648 27.5 75.811 27.375 76.0976 27.1243L75.4391 26.3717ZM75.0843 26.5H70.9443V27.5H75.0843V26.5ZM91.3164 26.748L91.696 26.4226L91.6835 26.408L91.67 26.3944L91.3164 26.748ZM91.1724 26.1L91.6468 26.2581L91.6556 26.2315L91.6615 26.204L91.1724 26.1ZM92.1444 21.528L92.6335 21.632L92.635 21.6247L92.6363 21.6174L92.1444 21.528ZM92.5404 20.88L92.8474 21.2747L92.5404 20.88ZM98.4084 20.88L98.7988 20.5677L98.7935 20.561L98.788 20.5546L98.4084 20.88ZM98.5164 21.528L98.0421 21.3699L98.0332 21.3965L98.0273 21.424L98.5164 21.528ZM97.5444 26.1L97.0553 25.996L97.0538 26.0033L97.0525 26.0106L97.5444 26.1ZM97.1484 26.748L96.8414 26.3533L96.83 26.3622L96.8192 26.3717L97.1484 26.748ZM91.9284 26.5C91.7794 26.5 91.7266 26.4582 91.696 26.4226L90.9368 27.0734C91.1942 27.3738 91.5494 27.5 91.9284 27.5V26.5ZM91.67 26.3944C91.6563 26.3808 91.6364 26.3584 91.6364 26.28H90.6364C90.6364 26.5856 90.7365 26.8752 90.9629 27.1016L91.67 26.3944ZM91.6364 26.28C91.6364 26.2887 91.6359 26.2945 91.6356 26.297C91.6353 26.2995 91.6352 26.2996 91.6357 26.2971C91.6368 26.2915 91.6398 26.2789 91.6468 26.2581L90.6981 25.9419C90.6657 26.0388 90.6364 26.1564 90.6364 26.28H91.6364ZM91.6615 26.204L92.6335 21.632L91.6553 21.424L90.6833 25.996L91.6615 26.204ZM92.6363 21.6174C92.6619 21.4771 92.7264 21.3688 92.8474 21.2747L92.2334 20.4853C91.9225 20.7272 91.723 21.0509 91.6525 21.4386L92.6363 21.6174ZM92.8474 21.2747C92.9791 21.1723 93.1119 21.128 93.2604 21.128V20.128C92.8809 20.128 92.5337 20.2517 92.2334 20.4853L92.8474 21.2747ZM93.2604 21.128H97.7964V20.128H93.2604V21.128ZM97.7964 21.128C97.9454 21.128 97.9982 21.1698 98.0288 21.2054L98.788 20.5546C98.5306 20.2542 98.1754 20.128 97.7964 20.128V21.128ZM98.018 21.1923C98.0363 21.2153 98.0524 21.2463 98.0524 21.312H99.0524C99.0524 21.0417 98.9725 20.7847 98.7988 20.5677L98.018 21.1923ZM98.0524 21.312C98.0524 21.3274 98.05 21.3461 98.0421 21.3699L98.9907 21.6861C99.0308 21.5659 99.0524 21.4406 99.0524 21.312H98.0524ZM98.0273 21.424L97.0553 25.996L98.0335 26.204L99.0055 21.632L98.0273 21.424ZM97.0525 26.0106C97.027 26.1509 96.9625 26.2592 96.8414 26.3533L97.4554 27.1427C97.7664 26.9008 97.9659 26.5771 98.0363 26.1894L97.0525 26.0106ZM96.8192 26.3717C96.7217 26.457 96.6119 26.5 96.4644 26.5V27.5C96.8449 27.5 97.1911 27.375 97.4777 27.1243L96.8192 26.3717ZM96.4644 26.5H91.9284V27.5H96.4644V26.5Z" fill="white"/>
</svg>
